# xmcd CD database file
#
# Track frame offsets:
#	150
#	18060
#	31910
#	46357
#	62917
#
# Disc length: 1048 seconds
#
# Revision: 1
# Processed by: cddbd v1.5.2PL0 Copyright (c) Steve Scherf et al.
# Submitted via: CDex 1.70
#
DISCID=35041605
DTITLE=Danny Wuenschel - Signifier - The Nashville Recordings - Season 1
DYEAR=2018
DGENRE=Country
TTITLE0=01 - The Door Is Always Open
TTITLE1=02 - I Lie When I Drink
TTITLE2=03 - Million Dollar Memories
TTITLE3=04 - Pullman City
TTITLE4=05 - To Know He Knows
EXTD=YEAR: 2018
EXTT0=
EXTT1=
EXTT2=
EXTT3=
EXTT4=
PLAYORDER=
